<svg id="text" xmlns="http://www.w3.org/2000/svg" viewBox="0 0 64 52"><defs><style>.cls-1{fill:#231f20;}</style></defs><title>keyfeatures_icon</title><path class="cls-1" d="M5177,1123h44a2,2,0,0,0,0-4h-44A2,2,0,0,0,5177,1123Z" transform="translate(-5159 -1115)"/><path class="cls-1" d="M5221,1139h-44a2,2,0,0,0,0,4h44A2,2,0,0,0,5221,1139Z" transform="translate(-5159 -1115)"/><path class="cls-1" d="M5221,1159h-44a2,2,0,0,0,0,4h44A2,2,0,0,0,5221,1159Z" transform="translate(-5159 -1115)"/><path class="cls-1" d="M5169,1135h-8a2,2,0,0,0-2,2v8a2,2,0,0,0,2,2h8a2,2,0,0,0,2-2v-8A2,2,0,0,0,5169,1135Zm-2,8h-4v-4h4v4Z" transform="translate(-5159 -1115)"/><path class="cls-1" d="M5169,1115h-8a2,2,0,0,0-2,2v8a2,2,0,0,0,2,2h8a2,2,0,0,0,2-2v-8A2,2,0,0,0,5169,1115Zm-2,8h-4v-4h4v4Z" transform="translate(-5159 -1115)"/><path class="cls-1" d="M5169,1155h-8a2,2,0,0,0-2,2v8a2,2,0,0,0,2,2h8a2,2,0,0,0,2-2v-8A2,2,0,0,0,5169,1155Zm-2,8h-4v-4h4v4Z" transform="translate(-5159 -1115)"/></svg>