<svg id="arrows" xmlns="http://www.w3.org/2000/svg" viewBox="0 0 63.99 29"><defs><style>.cls-1{fill:#231f20;}</style></defs><title>life_icon</title><path class="cls-1" d="M780.85,890.25a14.47,14.47,0,0,0-20.48,0h0L743,907.92h0a10.47,10.47,0,0,1-14.82,0,10.53,10.53,0,0,1,0-14.85,10.47,10.47,0,0,1,14.82,0l0,0,0,0,3.69,3.34a2,2,0,1,0,2.68-3l-3.69-3.34h0a14.46,14.46,0,0,0-20.39.08,14.53,14.53,0,0,0,0,20.5,14.47,14.47,0,0,0,20.48,0h0l17.38-17.67h0a10.47,10.47,0,0,1,14.82,0,10.53,10.53,0,0,1,0,14.85,10.47,10.47,0,0,1-14.82,0l0,0,0,0-3.69-3.34a2,2,0,0,0-2.68,3l3.69,3.34,0,0a14.46,14.46,0,0,0,20.38-.09A14.53,14.53,0,0,0,780.85,890.25Z" transform="translate(-721.09 -886)"/></svg>