<svg id="transport" xmlns="http://www.w3.org/2000/svg" viewBox="0 0 64 58"><defs><style>.cls-1{fill:#231f20;}</style></defs><title>speed_icon</title><path class="cls-1" d="M5313,2108.29V2092a2,2,0,0,0-4,0v16.3A7,7,0,1,0,5313,2108.29Zm0.12,8.83a3,3,0,1,1,0-4.24A3,3,0,0,1,5313.12,2117.13Z" transform="translate(-5279 -2072)"/><path class="cls-1" d="M5311,2086a2,2,0,0,0,2-2v-4a2,2,0,0,0-4,0v4A2,2,0,0,0,5311,2086Z" transform="translate(-5279 -2072)"/><path class="cls-1" d="M5291,2102h-4a2,2,0,0,0,0,4h4A2,2,0,0,0,5291,2102Z" transform="translate(-5279 -2072)"/><path class="cls-1" d="M5335,2102h-4a2,2,0,0,0,0,4h4A2,2,0,0,0,5335,2102Z" transform="translate(-5279 -2072)"/><path class="cls-1" d="M5329.38,2085.62a2,2,0,0,0-2.83,0l-2.83,2.83a2,2,0,1,0,2.83,2.83l2.83-2.83A2,2,0,0,0,5329.38,2085.62Z" transform="translate(-5279 -2072)"/><path class="cls-1" d="M5295.44,2085.62a2,2,0,1,0-2.83,2.83l2.83,2.83a2,2,0,0,0,2.83-2.83Z" transform="translate(-5279 -2072)"/><path class="cls-1" d="M5311,2072a32,32,0,0,0-19.2,57.6,2,2,0,0,0,1.2.4h36a2,2,0,0,0,1.2-.4A32,32,0,0,0,5311,2072Zm17.32,54h-34.64A28,28,0,1,1,5328.32,2126Z" transform="translate(-5279 -2072)"/></svg>